<svg xmlns="http://www.w3.org/2000/svg" viewBox="0 0 246.98 94.14"><defs><style>.cls-1,.cls-4,.cls-6,.cls-7{fill:#23265a;}.cls-1,.cls-4,.cls-6{stroke:#23265a;}.cls-1,.cls-2,.cls-3,.cls-4,.cls-6{stroke-miterlimit:10;}.cls-1{stroke-width:5px;}.cls-2,.cls-3{fill:none;stroke:#ea8039;}.cls-2{stroke-width:11.5px;}.cls-3{stroke-width:11px;}.cls-4{stroke-width:2px;}.cls-5{fill:#ea8039;}.cls-6{stroke-width:6px;}</style></defs><g id="Layer_2" data-name="Layer 2"><g id="Logo"><path id="Path_5833" data-name="Path 5833" class="cls-1" d="M138.2,4V8.14c0,.1-23.74,0-26,0-.85.05-1.7.09-2.5.19-3.64.47-7.37,1.74-9.63,4.76a8.44,8.44,0,0,0-.66,9.35,2.14,2.14,0,0,0,.23.38c1.75,2.69,4.72,4.29,7.74,5.47,4.2,1.6,8.59,2.6,12.7,4.29s8.11,4.39,10.19,8.31c2.78,5.28,1.42,12.32-2.88,16.47a19.77,19.77,0,0,1-10.14,4.81,56.8,56.8,0,0,1-11.38.66c-11.84-.09-6-.19-17.93-.28V58.21c12.79,0,7.88.1,20.67.1,3.68,0,7.5,0,11-1.18s6.7-3.87,7.59-7.46c1.09-4.53-1.88-9.2-5.8-11.8s-8.59-3.54-13.07-4.86-9.11-3.16-11.89-6.89a14.25,14.25,0,0,1-.38-15.85c3.3-5.24,9.39-6.33,15.38-6.33L138.2,4"/><path id="Path_5834" data-name="Path 5834" class="cls-2" d="M52.31,65.34V46.65A13.26,13.26,0,0,1,65.53,33.39h0A13.35,13.35,0,0,1,78.74,46.93v7.22"/><path id="Path_5835" data-name="Path 5835" class="cls-2" d="M64.44,33.43h1c6.23,0,11.61-4.83,12.93-10.89A13.65,13.65,0,0,0,70.25,7.21a12.84,12.84,0,0,0-4.77-1H47.31"/><path id="Path_5836" data-name="Path 5836" class="cls-3" d="M201.53,5.5h0A14.54,14.54,0,0,1,216.06,20V46.89a14.54,14.54,0,0,1-14.53,14.53h0A14.54,14.54,0,0,1,187,46.89V20A14.58,14.58,0,0,1,201.53,5.5Z"/><path id="Path_5837" data-name="Path 5837" class="cls-4" d="M246,66.47h-8.64V10.74H225.45l3.87-8.68H246Z"/><path id="Path_5867" data-name="Path 5867" class="cls-1" d="M173.45,8.14H155.14v54h-4.48v-54H132.39V4h41.06Z"/><rect id="Rectangle_1931" data-name="Rectangle 1931" class="cls-5" x="44.1" y="1.58" width="11.37" height="9.44"/><path id="Path_5868" data-name="Path 5868" class="cls-6" d="M44.1,8.38H25.79v54H21.31v-54H3V4.23H44.06Z"/><path id="Path_5869" data-name="Path 5869" class="cls-5" d="M72.8,54.38S74,68,87.8,65.34V55.66s-5.06-1.28-4.33-5.38Z"/><path id="Path_5838" data-name="Path 5838" class="cls-7" d="M5.36,87.33V88H3.47v6H2.62V88H.73v-.7Z"/><path id="Path_5839" data-name="Path 5839" class="cls-7" d="M12.58,94l-1.75-2.74H9.89V94H9V87.33h2.17a2.43,2.43,0,0,1,1.7.52,1.82,1.82,0,0,1,.57,1.41,1.88,1.88,0,0,1-1.8,1.94l1.8,2.73ZM9.89,90.63h1.27c1,0,1.47-.42,1.47-1.27s-.48-1.28-1.47-1.28H9.89Z"/><path id="Path_5840" data-name="Path 5840" class="cls-7" d="M18.2,87.33v4a2,2,0,0,0,.42,1.46,1.46,1.46,0,0,0,1.18.47A1.55,1.55,0,0,0,21,92.8a2.07,2.07,0,0,0,.42-1.46v-4h.9v4a2.89,2.89,0,0,1-.66,2,2.48,2.48,0,0,1-4.25-2v-4Z"/><path id="Path_5841" data-name="Path 5841" class="cls-7" d="M30.42,93.13a1.57,1.57,0,0,1-.71.66,1.86,1.86,0,0,1-1.13.24,3.36,3.36,0,0,1-1.18-.24,2.2,2.2,0,0,1-.85-.66,2.28,2.28,0,0,1-.38-.94h.94a1.26,1.26,0,0,0,.66,1,1.46,1.46,0,0,0,.76.19,1.37,1.37,0,0,0,.85-.29.88.88,0,0,0,.28-.75,1,1,0,0,0-.19-.66,1.37,1.37,0,0,0-.52-.43,5.76,5.76,0,0,0-.85-.33,5.9,5.9,0,0,1-1-.37,2,2,0,0,1-.66-.57,1.73,1.73,0,0,1-.28-1,1.59,1.59,0,0,1,.94-1.51,3,3,0,0,1,1.09-.24,2.31,2.31,0,0,1,1.56.47,1.82,1.82,0,0,1,.66,1.23h-1a1.1,1.1,0,0,0-.42-.71,1.22,1.22,0,0,0-.9-.28,1.47,1.47,0,0,0-.85.28A1,1,0,0,0,27,89a.84.84,0,0,0,.19.61,2.17,2.17,0,0,0,.52.38,5.28,5.28,0,0,0,.85.28,10,10,0,0,1,1,.38,1.65,1.65,0,0,1,.94,1.6A1,1,0,0,1,30.42,93.13Z"/><path id="Path_5842" data-name="Path 5842" class="cls-7" d="M38.72,87.33V88H36.84v6H36V88H34.1v-.7Z"/><path id="Path_5843" data-name="Path 5843" class="cls-7" d="M51.65,87.33V88H49.77v6h-.85V88H47v-.7Z"/><path id="Path_5844" data-name="Path 5844" class="cls-7" d="M58.87,94l-1.74-2.74h-1V94h-.85V87.33H57.5a2.41,2.41,0,0,1,1.7.52,1.79,1.79,0,0,1,.57,1.41A1.86,1.86,0,0,1,58,91.2l1.84,2.73Zm-2.69-3.35h1.28c1,0,1.46-.42,1.46-1.27s-.47-1.28-1.46-1.28H56.18Z"/><path id="Path_5845" data-name="Path 5845" class="cls-7" d="M67.6,92.47H64.68L64.11,94h-.94l2.45-6.51h1l2.46,6.56h-.95Zm-.23-.71-1.23-3.35-1.23,3.35Z"/><path id="Path_5846" data-name="Path 5846" class="cls-7" d="M77.94,94h-.85l-3.45-5.24V94h-.85V87.33h.85l3.45,5.28V87.33h.85Z"/><path id="Path_5847" data-name="Path 5847" class="cls-7" d="M86.15,93.13a1.57,1.57,0,0,1-.71.66,1.86,1.86,0,0,1-1.13.24,3.36,3.36,0,0,1-1.18-.24,1.79,1.79,0,0,1-.8-.66,2.15,2.15,0,0,1-.38-.94h.9a1.21,1.21,0,0,0,.66,1,1.4,1.4,0,0,0,.75.19,1.37,1.37,0,0,0,.85-.29.88.88,0,0,0,.28-.75.89.89,0,0,0-.23-.66,1.54,1.54,0,0,0-.52-.43,6.78,6.78,0,0,0-.85-.33,5.9,5.9,0,0,1-1-.37,1.91,1.91,0,0,1-.66-.57,1.82,1.82,0,0,1-.29-1,1.78,1.78,0,0,1,.24-.9,1.83,1.83,0,0,1,.71-.61,2.88,2.88,0,0,1,1.08-.24,2.3,2.3,0,0,1,1.56.47,1.78,1.78,0,0,1,.66,1.23h-.94a1.25,1.25,0,0,0-1.32-1,1.42,1.42,0,0,0-.85.28,1,1,0,0,0-.1,1.37,2.17,2.17,0,0,0,.52.38,5.28,5.28,0,0,0,.85.28,10,10,0,0,1,1,.38,1.65,1.65,0,0,1,.94,1.6A1.17,1.17,0,0,1,86.15,93.13Z"/><path id="Path_5848" data-name="Path 5848" class="cls-7" d="M91.2,91.29V94h-.85V87.33h2.12a2.43,2.43,0,0,1,1.7.52,2.15,2.15,0,0,1,0,2.92,2.43,2.43,0,0,1-1.7.52Zm2.31-1a1.43,1.43,0,0,0,0-1.88A1.65,1.65,0,0,0,92.38,88H91.2v2.55h1.18a1.59,1.59,0,0,0,1.13-.33Z"/><path id="Path_5849" data-name="Path 5849" class="cls-7" d="M102.48,92.47H99.55L99,94H98l2.5-6.51h1L104,94.08H103Zm-.24-.71L101,88.41l-1.22,3.35Z"/><path id="Path_5850" data-name="Path 5850" class="cls-7" d="M111.21,94l-1.75-2.74h-.94V94h-.85V87.33h2.17a2.43,2.43,0,0,1,1.7.52,1.81,1.81,0,0,1,.56,1.41,1.86,1.86,0,0,1-1.79,1.94l1.79,2.73Zm-2.69-3.35h1.27c1,0,1.46-.42,1.46-1.27s-.47-1.28-1.46-1.28h-1.27Z"/><path id="Path_5851" data-name="Path 5851" class="cls-7" d="M116.87,88V90.3h2.55V91h-2.55v2.31h2.83V94H116V87.33h3.68V88Z"/><path id="Path_5852" data-name="Path 5852" class="cls-7" d="M128.81,94H128l-3.45-5.24V94h-.85V87.33h.85L128,92.61V87.33h.85Z"/><path id="Path_5853" data-name="Path 5853" class="cls-7" d="M138,87.85a3,3,0,0,1,1.09,1.65h-.9a1.93,1.93,0,0,0-.8-1,2.09,2.09,0,0,0-1.37-.38,2.21,2.21,0,0,0-2,1.23,2.68,2.68,0,0,0-.28,1.37,3.27,3.27,0,0,0,.28,1.37,2.19,2.19,0,0,0,2,1.22,2.76,2.76,0,0,0,1.37-.37,2.16,2.16,0,0,0,.8-1h.9A3.29,3.29,0,0,1,138,93.51a3.33,3.33,0,0,1-2,.61,3.43,3.43,0,0,1-1.65-.42,3.36,3.36,0,0,1-1.13-1.18,4.21,4.21,0,0,1,0-3.54,2.74,2.74,0,0,1,1.13-1.18,3.56,3.56,0,0,1,1.65-.43A2.76,2.76,0,0,1,138,87.85Z"/><path id="Path_5854" data-name="Path 5854" class="cls-7" d="M147.78,87.33l-2.17,4.15V94h-.85V91.48l-2.17-4.15h1l1.65,3.21,1.65-3.21Z"/><path id="Path_5855" data-name="Path 5855" class="cls-7" d="M160.76,87.33V88h-1.89v6H158V88h-1.89v-.7Z"/><path id="Path_5856" data-name="Path 5856" class="cls-7" d="M168,94l-1.75-2.74h-.94V94h-.85V87.33h2.17a2.44,2.44,0,0,1,1.7.52,1.81,1.81,0,0,1,.56,1.41,1.86,1.86,0,0,1-1.79,1.94l1.79,2.73Zm-2.69-3.35h1.27c1,0,1.46-.42,1.46-1.27s-.47-1.28-1.46-1.28h-1.27Z"/><path id="Path_5857" data-name="Path 5857" class="cls-7" d="M176.66,92.47h-2.93L173.17,94h-.95l2.5-6.56h1L178.17,94h-.95Zm-.24-.71-1.22-3.35L174,91.76Z"/><path id="Path_5858" data-name="Path 5858" class="cls-7" d="M186.8,87.85a3,3,0,0,1,1.09,1.65H187a2.07,2.07,0,0,0-.85-1,2.11,2.11,0,0,0-1.37-.38,2.13,2.13,0,0,0-1.18.33,2.39,2.39,0,0,0-.8.9,2.8,2.8,0,0,0-.29,1.37,3.44,3.44,0,0,0,.29,1.37,2.19,2.19,0,0,0,2,1.22,2.76,2.76,0,0,0,1.37-.37,2.68,2.68,0,0,0,.85-1h.94a3.23,3.23,0,0,1-1.09,1.65,3.33,3.33,0,0,1-2,.61,3.43,3.43,0,0,1-1.65-.42A3.54,3.54,0,0,1,182,92.52,4.21,4.21,0,0,1,182,89a2.44,2.44,0,0,1,1.13-1.18,3.56,3.56,0,0,1,1.65-.43A2.75,2.75,0,0,1,186.8,87.85Z"/><path id="Path_5859" data-name="Path 5859" class="cls-7" d="M192.75,88V90.3h2.55V91h-2.55v2.31h2.83V94H191.9V87.33h3.68V88Z"/><path id="Path_5860" data-name="Path 5860" class="cls-7" d="M203.41,92.47h-2.92L199.92,94H199l2.5-6.51h1l2.45,6.56H204Zm-.23-.71L202,88.41l-1.23,3.35Z"/><path id="Path_5861" data-name="Path 5861" class="cls-7" d="M212.85,91.15a1.66,1.66,0,0,1,.38,1.08,1.72,1.72,0,0,1-.57,1.33,2.47,2.47,0,0,1-1.6.47h-2.45V87.37h2.45a2.15,2.15,0,0,1,1.51.43,1.38,1.38,0,0,1,.52,1.23,1.59,1.59,0,0,1-.33,1,1.68,1.68,0,0,1-.9.52A1.42,1.42,0,0,1,212.85,91.15Zm-3.39-.9h1.41a1.32,1.32,0,0,0,.94-.28,1.12,1.12,0,0,0,0-1.59h0a1.3,1.3,0,0,0-1-.29h-1.41Zm2.5,2.69a1.2,1.2,0,0,0,0-1.69h0l0,0a1.58,1.58,0,0,0-1-.33H209.5v2.36H211a1.32,1.32,0,0,0,1-.29Z"/><path id="Path_5862" data-name="Path 5862" class="cls-7" d="M218,87.33V94h-.85V87.33Z"/><path id="Path_5863" data-name="Path 5863" class="cls-7" d="M223.09,93.32h2.36V94h-3.21V87.33h.85Z"/><path id="Path_5864" data-name="Path 5864" class="cls-7" d="M230,87.33V94h-.85V87.33Z"/><path id="Path_5865" data-name="Path 5865" class="cls-7" d="M238.29,87.33V88H236.4v6h-.85V88h-1.89v-.7Z"/><path id="Path_5866" data-name="Path 5866" class="cls-7" d="M246.73,87.33l-2.17,4.15V94h-.85V91.48l-2.17-4.15h1l1.65,3.21,1.6-3.21Z"/><circle id="Ellipse_306" data-name="Ellipse 306" class="cls-7" cx="42.36" cy="90.58" r="0.71"/><circle id="Ellipse_307" data-name="Ellipse 307" class="cls-7" cx="152.26" cy="90.58" r="0.71"/></g></g></svg>