<svg xmlns="http://www.w3.org/2000/svg" viewBox="0 0 370.26 76.84"><defs><style>.cls-1{fill:#222;}.cls-2,.cls-5,.cls-7,.cls-8{fill:#23265a;}.cls-2,.cls-5,.cls-7{stroke:#23265a;}.cls-2,.cls-3,.cls-4,.cls-5,.cls-7{stroke-miterlimit:10;}.cls-2{stroke-width:5px;}.cls-3,.cls-4{fill:none;stroke:#ea8039;}.cls-3{stroke-width:10px;}.cls-4{stroke-width:11px;}.cls-5{stroke-width:2px;}.cls-6{fill:#ea8039;}.cls-7{stroke-width:6px;}</style></defs><g id="Layer_2" data-name="Layer 2"><g id="Logo"><path class="cls-1" d="M12.66,30.13a5.74,5.74,0,0,1,2,4.65,5.75,5.75,0,0,1-2,4.66A8.45,8.45,0,0,1,7.1,41.13H2.6v5.51H0V28.44H7.1A8.39,8.39,0,0,1,12.66,30.13Zm-1.87,7.68a3.66,3.66,0,0,0,1.3-3,3.68,3.68,0,0,0-1.3-3A5.88,5.88,0,0,0,7,30.7H2.6v8.16H7A5.88,5.88,0,0,0,10.79,37.81Z"/><path class="cls-1" d="M20.31,45.88a6.48,6.48,0,0,1-2.56-2.5,7.55,7.55,0,0,1,0-7.26,6.39,6.39,0,0,1,2.56-2.49,8,8,0,0,1,7.37,0,6.56,6.56,0,0,1,2.55,2.49,7.62,7.62,0,0,1,0,7.26,6.66,6.66,0,0,1-2.55,2.5,7.38,7.38,0,0,1-3.68.91A7.42,7.42,0,0,1,20.31,45.88ZM26.38,44A4.34,4.34,0,0,0,28,42.28a5.2,5.2,0,0,0,.6-2.53,5.27,5.27,0,0,0-.6-2.54,4.29,4.29,0,0,0-1.65-1.7,4.75,4.75,0,0,0-2.38-.6,4.7,4.7,0,0,0-2.38.6A4.31,4.31,0,0,0,20,37.21a5.16,5.16,0,0,0-.62,2.54A5.1,5.1,0,0,0,20,42.28,4.36,4.36,0,0,0,21.62,44a4.61,4.61,0,0,0,2.38.61A4.66,4.66,0,0,0,26.38,44Z"/><path class="cls-1" d="M55.07,32.86,49.92,46.64H47.53l-4-10.45-4,10.45H37.13L32,32.86h2.36l4,11,4.16-11h2.1l4.08,11,4.11-11Z"/><path class="cls-1" d="M69.6,40.58H58.42A4.37,4.37,0,0,0,60,43.51a5.25,5.25,0,0,0,3.39,1.1,5.1,5.1,0,0,0,4-1.66l1.38,1.61a6,6,0,0,1-2.33,1.66,8.82,8.82,0,0,1-7-.32,6.38,6.38,0,0,1-2.61-2.51,7.16,7.16,0,0,1-.92-3.64,7.41,7.41,0,0,1,.89-3.62,6.38,6.38,0,0,1,2.47-2.5,7,7,0,0,1,3.55-.9,6.85,6.85,0,0,1,3.52.9,6.2,6.2,0,0,1,2.42,2.5,7.69,7.69,0,0,1,.87,3.7A5.82,5.82,0,0,1,69.6,40.58Zm-9.76-4.65a4.37,4.37,0,0,0-1.42,2.86h8.84a4.44,4.44,0,0,0-1.42-2.85,4.25,4.25,0,0,0-3-1.11A4.3,4.3,0,0,0,59.84,35.93Z"/><path class="cls-1" d="M77.43,33.35a7.06,7.06,0,0,1,3.09-.62v2.42a4.89,4.89,0,0,0-3.76,1.18,4.78,4.78,0,0,0-1.15,3.44v6.87h-2.5V32.86H75.5v2.31A4.36,4.36,0,0,1,77.43,33.35Z"/><path class="cls-1" d="M95.86,40.58H84.68a4.37,4.37,0,0,0,1.6,2.93,5.25,5.25,0,0,0,3.39,1.1,5.1,5.1,0,0,0,4-1.66L95,44.56a6,6,0,0,1-2.33,1.66,8.82,8.82,0,0,1-7-.32,6.38,6.38,0,0,1-2.61-2.51,7.16,7.16,0,0,1-.92-3.64,7.3,7.3,0,0,1,.89-3.62,6.38,6.38,0,0,1,2.47-2.5,7,7,0,0,1,3.55-.9,6.85,6.85,0,0,1,3.52.9A6.2,6.2,0,0,1,95,36.13a7.69,7.69,0,0,1,.87,3.7A5.82,5.82,0,0,1,95.86,40.58ZM86.1,35.93a4.37,4.37,0,0,0-1.42,2.86h8.84a4.44,4.44,0,0,0-1.42-2.85,4.62,4.62,0,0,0-6,0Z"/><path class="cls-1" d="M112.37,27.35V46.64H110V44.45a5.42,5.42,0,0,1-2.11,1.75,6.49,6.49,0,0,1-2.81.59,7.2,7.2,0,0,1-3.58-.88A6.38,6.38,0,0,1,99,43.43a8,8,0,0,1,0-7.35,6.36,6.36,0,0,1,2.49-2.47,7.2,7.2,0,0,1,3.58-.88,6.55,6.55,0,0,1,2.74.56,5.31,5.31,0,0,1,2.08,1.65V27.35ZM107.64,44a4.3,4.3,0,0,0,1.66-1.72,5.2,5.2,0,0,0,.6-2.53,5.27,5.27,0,0,0-.6-2.54,4.24,4.24,0,0,0-1.66-1.7,5,5,0,0,0-4.75,0,4.38,4.38,0,0,0-1.66,1.7,5.16,5.16,0,0,0-.61,2.54,5.09,5.09,0,0,0,.61,2.53A4.43,4.43,0,0,0,102.89,44a4.93,4.93,0,0,0,4.75,0Z"/><path class="cls-1" d="M135,33.61a6.27,6.27,0,0,1,2.48,2.47,8,8,0,0,1,0,7.35A6.29,6.29,0,0,1,135,45.91a7.23,7.23,0,0,1-3.59.88,6.45,6.45,0,0,1-2.8-.59,5.35,5.35,0,0,1-2.11-1.75v2.19H124.1V27.35h2.49v7.59a5.31,5.31,0,0,1,2.08-1.65,6.51,6.51,0,0,1,2.73-.56A7.23,7.23,0,0,1,135,33.61ZM133.57,44a4.39,4.39,0,0,0,1.67-1.72,5.09,5.09,0,0,0,.61-2.53,5.16,5.16,0,0,0-.61-2.54,4.33,4.33,0,0,0-1.67-1.7,5,5,0,0,0-4.74,0,4.27,4.27,0,0,0-1.67,1.7,5.38,5.38,0,0,0-.59,2.54,5.31,5.31,0,0,0,.59,2.53A4.32,4.32,0,0,0,128.83,44a4.91,4.91,0,0,0,4.74,0Z"/><path class="cls-1" d="M153.63,32.86,147,48a6.83,6.83,0,0,1-2.07,3,4.69,4.69,0,0,1-2.84.86,6,6,0,0,1-2-.33,3.94,3.94,0,0,1-1.57-.95l1.07-1.87a3.46,3.46,0,0,0,2.47,1,2.4,2.4,0,0,0,1.52-.48,4.3,4.3,0,0,0,1.1-1.66l.44-1L139,32.86h2.6l4.81,11,4.76-11Z"/><path id="Path_5833" data-name="Path 5833" class="cls-2" d="M282.51,4.28V7.63c0,.07-19.1,0-20.92,0-.69,0-1.37.08-2,.16-2.92.38-5.92,1.4-7.75,3.83a6.79,6.79,0,0,0-.53,7.52,2,2,0,0,0,.19.31c1.41,2.16,3.8,3.45,6.23,4.4,3.38,1.29,6.91,2.09,10.22,3.46s6.53,3.53,8.2,6.68a11.54,11.54,0,0,1-2.32,13.26,15.92,15.92,0,0,1-8.16,3.87,45.79,45.79,0,0,1-9.15.53c-9.54-.07-4.87-.15-14.44-.22V47.92c10.3,0,6.35.08,16.64.08a27.67,27.67,0,0,0,8.85-1c2.81-.95,5.39-3.11,6.11-6,.88-3.65-1.52-7.41-4.67-9.5s-6.91-2.84-10.52-3.91-7.33-2.54-9.57-5.54a11.48,11.48,0,0,1-.3-12.76c2.65-4.22,7.55-5.09,12.38-5.09l21.53,0"/><path id="Path_5834" data-name="Path 5834" class="cls-3" d="M213.39,53.66v-15A10.67,10.67,0,0,1,224,28h0a10.75,10.75,0,0,1,10.64,10.9v5.81"/><path id="Path_5835" data-name="Path 5835" class="cls-3" d="M223.15,28H224a10.93,10.93,0,0,0,3.83-21A10.1,10.1,0,0,0,224,6.15H209.36"/><path id="Path_5836" data-name="Path 5836" class="cls-4" d="M333.48,5.5h0a11.7,11.7,0,0,1,11.7,11.7V38.81a11.71,11.71,0,0,1-11.7,11.7h0a11.72,11.72,0,0,1-11.7-11.7V17.2A11.73,11.73,0,0,1,333.48,5.5Z"/><path id="Path_5837" data-name="Path 5837" class="cls-5" d="M369.26,54.57h-6.95V9.72h-9.57l3.11-7h13.41Z"/><path id="Path_5867" data-name="Path 5867" class="cls-2" d="M310.88,7.63H296.15V51.11h-3.61V7.63h-14.7V4.28h33Z"/><rect id="Rectangle_1931" data-name="Rectangle 1931" class="cls-6" x="206.78" y="2.35" width="9.15" height="7.6"/><path id="Path_5868" data-name="Path 5868" class="cls-7" d="M206.78,7.82H192V51.3h-3.6V7.82H173.7V4.47h33Z"/><path id="Path_5869" data-name="Path 5869" class="cls-6" d="M229.88,44.84s1,11,12.07,8.82V45.87s-4.07-1-3.49-4.33Z"/><path id="Path_5838" data-name="Path 5838" class="cls-8" d="M175.6,71.36v.57h-1.52v4.78h-.68V71.93h-1.52v-.57Z"/><path id="Path_5839" data-name="Path 5839" class="cls-8" d="M181.41,76.71l-1.4-2.2h-.76v2.2h-.69V71.36h1.75a2,2,0,0,1,1.37.41,1.49,1.49,0,0,1,.45,1.14,1.61,1.61,0,0,1-.38,1.07,1.57,1.57,0,0,1-1.06.49l1.44,2.2ZM179.25,74h1c.8,0,1.18-.35,1.18-1s-.38-1-1.18-1h-1Z"/><path id="Path_5840" data-name="Path 5840" class="cls-8" d="M185.93,71.36v3.23a1.64,1.64,0,0,0,.34,1.17,1.14,1.14,0,0,0,.95.38,1.22,1.22,0,0,0,.95-.38,1.64,1.64,0,0,0,.34-1.17V71.36h.72v3.23a2.31,2.31,0,0,1-.53,1.63,2,2,0,0,1-3.42-1.63V71.36Z"/><path id="Path_5841" data-name="Path 5841" class="cls-8" d="M195.77,76a1.27,1.27,0,0,1-.57.53,1.54,1.54,0,0,1-.91.19,2.56,2.56,0,0,1-.95-.19,1.88,1.88,0,0,1-.69-.53,1.92,1.92,0,0,1-.3-.76h.76a1,1,0,0,0,.53.8,1.15,1.15,0,0,0,.61.15,1.12,1.12,0,0,0,.68-.23.74.74,0,0,0,.23-.61.91.91,0,0,0-.15-.53,1.26,1.26,0,0,0-.42-.34,5.66,5.66,0,0,0-.68-.27,4.25,4.25,0,0,1-.8-.3,1.56,1.56,0,0,1-.53-.46,1.31,1.31,0,0,1-.23-.79,1.26,1.26,0,0,1,.76-1.22,2.34,2.34,0,0,1,.87-.19,1.81,1.81,0,0,1,1.25.38,1.43,1.43,0,0,1,.54,1H195a.91.91,0,0,0-.34-.57,1,1,0,0,0-.73-.23,1.14,1.14,0,0,0-.68.23.75.75,0,0,0-.27.61.69.69,0,0,0,.16.49,1.73,1.73,0,0,0,.41.3,4.3,4.3,0,0,0,.69.23,8.29,8.29,0,0,1,.83.31,1.31,1.31,0,0,1,.76,1.29A.8.8,0,0,1,195.77,76Z"/><path id="Path_5842" data-name="Path 5842" class="cls-8" d="M202.45,71.36v.57h-1.52v4.78h-.68V71.93h-1.52v-.57Z"/><path id="Path_5843" data-name="Path 5843" class="cls-8" d="M212.86,71.36v.57h-1.52v4.78h-.69V71.93h-1.51v-.57Z"/><path id="Path_5844" data-name="Path 5844" class="cls-8" d="M218.67,76.71l-1.41-2.2h-.76v2.2h-.68V71.36h1.75a2,2,0,0,1,1.36.41,1.47,1.47,0,0,1,.46,1.14A1.61,1.61,0,0,1,219,74a1.59,1.59,0,0,1-1.06.49l1.48,2.2ZM216.5,74h1c.8,0,1.18-.35,1.18-1s-.38-1-1.18-1h-1Z"/><path id="Path_5845" data-name="Path 5845" class="cls-8" d="M225.69,75.5h-2.35l-.46,1.25h-.76l2-5.24h.8l2,5.28h-.76Zm-.19-.57-1-2.7-1,2.7Z"/><path id="Path_5846" data-name="Path 5846" class="cls-8" d="M234,76.71h-.68l-2.77-4.21v4.21h-.69V71.36h.69l2.77,4.25V71.36H234Z"/><path id="Path_5847" data-name="Path 5847" class="cls-8" d="M240.62,76a1.27,1.27,0,0,1-.57.53,1.52,1.52,0,0,1-.91.19,2.56,2.56,0,0,1-.95-.19,1.53,1.53,0,0,1-.65-.53,1.92,1.92,0,0,1-.3-.76H238a1,1,0,0,0,.53.8,1.2,1.2,0,0,0,.61.15,1.14,1.14,0,0,0,.69-.23.73.73,0,0,0,.22-.61.66.66,0,0,0-.19-.53,1.23,1.23,0,0,0-.41-.34,5.8,5.8,0,0,0-.69-.27,4.84,4.84,0,0,1-.8-.3,1.56,1.56,0,0,1-.53-.46,1.46,1.46,0,0,1-.23-.79,1.53,1.53,0,0,1,.19-.73,1.5,1.5,0,0,1,.57-.49,2.44,2.44,0,0,1,.88-.19,1.82,1.82,0,0,1,1.25.38,1.38,1.38,0,0,1,.53,1h-.76a1,1,0,0,0-1.06-.8,1.09,1.09,0,0,0-.68.23.82.82,0,0,0-.08,1.1,1.6,1.6,0,0,0,.42.3,4.19,4.19,0,0,0,.68.23,8.46,8.46,0,0,1,.84.31,1.34,1.34,0,0,1,.76,1.29A1,1,0,0,1,240.62,76Z"/><path id="Path_5848" data-name="Path 5848" class="cls-8" d="M244.68,74.55v2.16H244V71.36h1.71a2,2,0,0,1,1.37.41,1.75,1.75,0,0,1,0,2.36,2,2,0,0,1-1.37.42Zm1.87-.84a1.16,1.16,0,0,0,0-1.52,1.31,1.31,0,0,0-.92-.26h-.95v2h.95a1.32,1.32,0,0,0,.92-.27Z"/><path id="Path_5849" data-name="Path 5849" class="cls-8" d="M253.76,75.5h-2.35L251,76.75h-.76l2-5.24h.8l2,5.28h-.76Zm-.19-.57-1-2.7-1,2.7Z"/><path id="Path_5850" data-name="Path 5850" class="cls-8" d="M260.79,76.71l-1.41-2.2h-.76v2.2h-.68V71.36h1.75a2,2,0,0,1,1.36.41,1.47,1.47,0,0,1,.46,1.14,1.61,1.61,0,0,1-.38,1.07,1.59,1.59,0,0,1-1.06.49l1.44,2.2ZM258.62,74h1c.8,0,1.18-.35,1.18-1s-.38-1-1.18-1h-1Z"/><path id="Path_5851" data-name="Path 5851" class="cls-8" d="M265.35,71.93v1.82h2v.53h-2v1.86h2.27v.57h-3V71.36h3v.57Z"/><path id="Path_5852" data-name="Path 5852" class="cls-8" d="M275,76.71h-.68L271.5,72.5v4.21h-.69V71.36h.69l2.77,4.25V71.36H275Z"/><path id="Path_5853" data-name="Path 5853" class="cls-8" d="M282.32,71.77a2.51,2.51,0,0,1,.88,1.33h-.73a1.56,1.56,0,0,0-.64-.83,1.67,1.67,0,0,0-1.1-.31,1.79,1.79,0,0,0-1.6,1,2.2,2.2,0,0,0-.23,1.1,2.74,2.74,0,0,0,.23,1.1,1.78,1.78,0,0,0,1.6,1,2.14,2.14,0,0,0,1.1-.3,1.72,1.72,0,0,0,.64-.84h.73a2.63,2.63,0,0,1-.88,1.33,2.81,2.81,0,0,1-3,.15,2.59,2.59,0,0,1-.91-1,3.36,3.36,0,0,1,0-2.84,2.15,2.15,0,0,1,.91-1,2.81,2.81,0,0,1,1.33-.35A2.24,2.24,0,0,1,282.32,71.77Z"/><path id="Path_5854" data-name="Path 5854" class="cls-8" d="M290.22,71.36l-1.74,3.34v2h-.69v-2L286,71.36h.8l1.33,2.58,1.33-2.58Z"/><path id="Path_5855" data-name="Path 5855" class="cls-8" d="M300.67,71.36v.57h-1.52v4.78h-.69V71.93h-1.52v-.57Z"/><path id="Path_5856" data-name="Path 5856" class="cls-8" d="M306.48,76.71l-1.41-2.2h-.76v2.2h-.68V71.36h1.75a2,2,0,0,1,1.36.41,1.5,1.5,0,0,1,.46,1.14,1.61,1.61,0,0,1-.38,1.07,1.59,1.59,0,0,1-1.06.49l1.44,2.2ZM304.31,74h1c.8,0,1.18-.35,1.18-1s-.38-1-1.18-1h-1Z"/><path id="Path_5857" data-name="Path 5857" class="cls-8" d="M313.47,75.5h-2.36l-.45,1.25h-.76l2-5.28h.8l2,5.28h-.76Zm-.19-.57-1-2.7-1,2.7Z"/><path id="Path_5858" data-name="Path 5858" class="cls-8" d="M321.63,71.77a2.44,2.44,0,0,1,.87,1.33h-.75a1.65,1.65,0,0,0-.69-.83A1.67,1.67,0,0,0,320,72a1.75,1.75,0,0,0-.95.27,1.93,1.93,0,0,0-.64.72,2.2,2.2,0,0,0-.23,1.1,2.59,2.59,0,0,0,.23,1.1,1.75,1.75,0,0,0,1.59,1,2.12,2.12,0,0,0,1.1-.3,2.17,2.17,0,0,0,.69-.84h.75a2.55,2.55,0,0,1-.87,1.33,2.81,2.81,0,0,1-3,.15,2.59,2.59,0,0,1-.91-1,3.36,3.36,0,0,1,0-2.84,2,2,0,0,1,.91-1,2.81,2.81,0,0,1,1.33-.35A2.24,2.24,0,0,1,321.63,71.77Z"/><path id="Path_5859" data-name="Path 5859" class="cls-8" d="M326.42,71.93v1.82h2.05v.53h-2.05v1.86h2.28v.57h-3V71.36h3v.57Z"/><path id="Path_5860" data-name="Path 5860" class="cls-8" d="M335,75.5h-2.35l-.46,1.25h-.76l2-5.24h.8l2,5.28h-.76Zm-.19-.57-1-2.7-1,2.7Z"/><path id="Path_5861" data-name="Path 5861" class="cls-8" d="M342.6,74.43a1.45,1.45,0,0,1-.16,1.94,2,2,0,0,1-1.29.38h-2V71.39h2a1.72,1.72,0,0,1,1.22.35,1.09,1.09,0,0,1,.42,1,1.34,1.34,0,0,1-.27.84,1.42,1.42,0,0,1-.72.42A1.17,1.17,0,0,1,342.6,74.43Zm-2.74-.72H341a1,1,0,0,0,.76-.23.9.9,0,0,0,0-1.28h0A1.09,1.09,0,0,0,341,72h-1.14Zm2,2.17a1,1,0,0,0,.05-1.37h0l0,0a1.23,1.23,0,0,0-.83-.26H339.9V76.1h1.18a1,1,0,0,0,.79-.22Z"/><path id="Path_5862" data-name="Path 5862" class="cls-8" d="M346.74,71.36v5.35h-.69V71.36Z"/><path id="Path_5863" data-name="Path 5863" class="cls-8" d="M350.84,76.18h1.9v.53h-2.59V71.36h.69Z"/><path id="Path_5864" data-name="Path 5864" class="cls-8" d="M356.42,71.36v5.35h-.68V71.36Z"/><path id="Path_5865" data-name="Path 5865" class="cls-8" d="M363.07,71.36v.57h-1.52v4.78h-.69V71.93h-1.51v-.57Z"/><path id="Path_5866" data-name="Path 5866" class="cls-8" d="M369.87,71.36l-1.75,3.34v2h-.69v-2l-1.74-3.34h.8l1.32,2.58,1.3-2.58Z"/><circle id="Ellipse_306" data-name="Ellipse 306" class="cls-8" cx="205.38" cy="73.98" r="0.57"/><circle id="Ellipse_307" data-name="Ellipse 307" class="cls-8" cx="293.83" cy="73.98" r="0.57"/></g></g></svg>